{"title":"The.Losers.2010.1080p.BluRay.DTS.x264-LTT","uid":5673618,"size":6546301565,"categoryP":"video","categoryS":"hd___movies","magnet":"?xt=urn:btih:5414c4596dd778d4020ebed7912c4c70cc3d678c&amp;dn=The.Losers.2010.1080p.BluRay.DTS.x264-LTT&amp;tr=udp%3A%2F%2Ftracker.openbittorrent.com%3A80&amp;tr=udp%3A%2F%2Fopen.demonii.com%3A1337&amp;tr=udp%3A%2F%2Ftracker.coppersurfer.tk%3A6969&amp;tr=udp%3A%2F%2Fexodus.desync.com%3A6969","seeders":0,"leechers":1,"uploader":"stevekraftman","files":2,"time":1278447097,"description":"The.Losers.2010.1080p.Bluray.DTS.x264-LTT.mkv\n*********************************************\n\nTiTLE......  The Losers\nYEAR.......  2010\nGENRE......  Action | Adventure | Crime | Mystery | Thriller\niMDB RATE..  User Rating: 6.6/10 (7,032 votes)\niMDB URL... &lt;a href=&quot; http://www.imdb.com/title/tt0480255/&quot; rel=&quot;nofollow&quot; target=&quot;_NEW&quot;&gt; http://www.imdb.com/title/tt0480255/&lt;/a&gt;\n*************************************************\nVideo\nDuration                         : 1h 37mn\nOverall bit rate                 : 8 997 Kbps\nWidth                            : 1 920 pixels\nHeight                           : 816 pixels\nDisplay aspect ratio             : 2.35:1\nFrame rate                       : 23.976 fps\nStream size                      : 4.95 GiB (81%)\n\nAudio\nFormat                           : DTS\nFormat/Info                      : Digital Theater Systems\nBit rate                         : 1 510 Kbps\nChannel(s)                       : 6 channels\nChannel positions                : Front: L C R, Surround: L R, LFE\nSampling rate                    : 48.0 KHz\nResolution                       : 24 bits\nStream size                      : 1.02 GiB (17%)\nLanguage                         : English\n\nSubtitles: English, French (*.srt)\n**********************************\n\n\n","torrent":{"xt":"urn:btih:5414c4596dd778d4020ebed7912c4c70cc3d678c","amp;dn":"The.Losers.2010.1080p.BluRay.DTS.x264-LTT","amp;tr":["udp%3A%2F%2Ftracker.openbittorrent.com%3A80","udp%3A%2F%2Fopen.demonii.com%3A1337","udp%3A%2F%2Ftracker.coppersurfer.tk%3A6969","udp%3A%2F%2Fexodus.desync.com%3A6969"],"infoHash":"5414c4596dd778d4020ebed7912c4c70cc3d678c","infoHashBuffer":{"type":"Buffer","data":[84,20,196,89,109,215,120,212,2,14,190,215,145,44,76,112,204,61,103,140]},"announce":[],"urlList":[]}}